<svg width="700" height="115" viewBox="0 0 700 115" fill="none" xmlns="http://www.w3.org/2000/svg">
<path d="M405.132 5.91626C413.863 5.91626 421.269 8.95699 427.351 15.0384V15.0485C433.432 21.1299 436.473 28.3053 436.473 36.5644V78.3619C436.473 86.621 433.432 93.7963 427.351 99.8778C421.269 105.959 413.863 109 405.132 109H359.862V81.5082L380.756 60.7999V89.4912H405.132C407.832 89.4912 410.25 88.4274 412.378 86.2899C414.505 84.1523 415.579 81.513 415.579 78.3519V36.5644C415.579 33.4133 414.515 30.7639 412.378 28.6264C410.24 26.4989 407.822 25.4251 405.132 25.4251H380.756V54.1163L359.862 33.2226V5.91626H405.132Z" fill="#2CB7C6" stroke="#2CB7C6" stroke-width="0.975429" stroke-linejoin="round"/>
<mask id="path-2-inside-1_130_46" fill="white">
<path fill-rule="evenodd" clip-rule="evenodd" d="M101.976 33.466L88.2974 60.9869L88.6164 84.6498L89 108.904H98.5H107.968V94.9771V81.0489H125.943H143.917L144.205 94.6808V108.904H154H163.329V84.6498L163.648 60.9869L149.97 33.466L136.292 5.94507H125.973H115.654L101.976 33.466ZM193.736 7.0171C184.693 9.77434 175.191 19.6664 172.683 28.932C169.919 39.1523 174.013 51.707 182.566 59.2359C189.142 65.025 194.593 66.6454 207.484 66.6454C219.507 66.6454 223.222 67.8934 225.751 72.7844C227.848 76.838 227.711 79.8678 225.25 83.9039C222.425 88.5377 219.157 89.4955 207.528 89.1035C198.278 88.7908 197.31 88.5572 194.777 86.0212C193.211 84.4543 191.762 81.587 191.396 79.3339L190.759 75.3904L181.256 75.0941L171.755 74.7988V78.9141C171.755 89.2116 180.005 101.45 190.048 106.05C194.254 107.977 196.765 108.278 208.793 108.294C221.131 108.311 223.256 108.048 227.826 105.947C247.824 96.7508 252.641 71.5961 237.283 56.562C230.373 49.7985 225.007 47.9878 209.945 47.3365C197.516 46.8005 196.883 46.6637 194.151 43.9301C189.342 39.1225 190.903 29.469 196.933 26.7221C198.452 26.0297 204.146 25.4926 209.973 25.4926H216.588C218.975 25.4926 221.264 26.4409 222.952 28.1287L223.814 28.9906C226.287 31.4639 227.312 33.4228 227.312 35.678V38.8673H237.218H247.125L246.424 33.466C245.037 22.757 238.001 13.0388 228.494 8.69819C224.523 6.88541 221.439 6.47285 210.336 6.27326C202.98 6.14157 195.51 6.47594 193.736 7.0171ZM255.09 57.4252V108.904H267H277V87.7753V65.5H292.642H308V85.5V108.904H320.5H329.946V57.1289L330.213 5.94507H320.429H308V16.5V27V47.0979H292.642H277V26.5215V5.94507H264.863H255.09V57.4252ZM141.865 60.7297C141.895 61.1536 134.743 61.5013 125.973 61.5013C117.202 61.5013 110.026 61.274 110.026 60.9952C110.026 60.7174 113.609 53.3058 117.988 44.5258L125.951 28.5616L133.881 44.2593C138.243 52.8942 141.835 60.3058 141.865 60.7297Z"/>
<path d="M5.87659 108.904V57.4252V5.94507H15.6504H27.7869V26.5215V47.0979H43.4285H58.7869V27V16.5V5.94507H71.2159H81L80.7325 57.1289V108.904H71.2869H61.4329V87.7753V65.5H43.4285H27.7869V87.7753V108.904H17.7869H5.87659Z"/>
</mask>
<path fill-rule="evenodd" clip-rule="evenodd" d="M101.976 33.466L88.2974 60.9869L88.6164 84.6498L89 108.904H98.5H107.968V94.9771V81.0489H125.943H143.917L144.205 94.6808V108.904H154H163.329V84.6498L163.648 60.9869L149.97 33.466L136.292 5.94507H125.973H115.654L101.976 33.466ZM193.736 7.0171C184.693 9.77434 175.191 19.6664 172.683 28.932C169.919 39.1523 174.013 51.707 182.566 59.2359C189.142 65.025 194.593 66.6454 207.484 66.6454C219.507 66.6454 223.222 67.8934 225.751 72.7844C227.848 76.838 227.711 79.8678 225.25 83.9039C222.425 88.5377 219.157 89.4955 207.528 89.1035C198.278 88.7908 197.31 88.5572 194.777 86.0212C193.211 84.4543 191.762 81.587 191.396 79.3339L190.759 75.3904L181.256 75.0941L171.755 74.7988V78.9141C171.755 89.2116 180.005 101.45 190.048 106.05C194.254 107.977 196.765 108.278 208.793 108.294C221.131 108.311 223.256 108.048 227.826 105.947C247.824 96.7508 252.641 71.5961 237.283 56.562C230.373 49.7985 225.007 47.9878 209.945 47.3365C197.516 46.8005 196.883 46.6637 194.151 43.9301C189.342 39.1225 190.903 29.469 196.933 26.7221C198.452 26.0297 204.146 25.4926 209.973 25.4926H216.588C218.975 25.4926 221.264 26.4409 222.952 28.1287L223.814 28.9906C226.287 31.4639 227.312 33.4228 227.312 35.678V38.8673H237.218H247.125L246.424 33.466C245.037 22.757 238.001 13.0388 228.494 8.69819C224.523 6.88541 221.439 6.47285 210.336 6.27326C202.98 6.14157 195.51 6.47594 193.736 7.0171ZM255.09 57.4252V108.904H267H277V87.7753V65.5H292.642H308V85.5V108.904H320.5H329.946V57.1289L330.213 5.94507H320.429H308V16.5V27V47.0979H292.642H277V26.5215V5.94507H264.863H255.09V57.4252ZM141.865 60.7297C141.895 61.1536 134.743 61.5013 125.973 61.5013C117.202 61.5013 110.026 61.274 110.026 60.9952C110.026 60.7174 113.609 53.3058 117.988 44.5258L125.951 28.5616L133.881 44.2593C138.243 52.8942 141.835 60.3058 141.865 60.7297Z" fill="#2CB7C6"/>
<path d="M5.87659 108.904V57.4252V5.94507H15.6504H27.7869V26.5215V47.0979H43.4285H58.7869V27V16.5V5.94507H71.2159H81L80.7325 57.1289V108.904H71.2869H61.4329V87.7753V65.5H43.4285H27.7869V87.7753V108.904H17.7869H5.87659Z" fill="#2CB7C6"/>
<path fill-rule="evenodd" clip-rule="evenodd" d="M101.976 33.466L88.2974 60.9869L88.6164 84.6498L89 108.904H98.5H107.968V94.9771V81.0489H125.943H143.917L144.205 94.6808V108.904H154H163.329V84.6498L163.648 60.9869L149.97 33.466L136.292 5.94507H125.973H115.654L101.976 33.466ZM193.736 7.0171C184.693 9.77434 175.191 19.6664 172.683 28.932C169.919 39.1523 174.013 51.707 182.566 59.2359C189.142 65.025 194.593 66.6454 207.484 66.6454C219.507 66.6454 223.222 67.8934 225.751 72.7844C227.848 76.838 227.711 79.8678 225.25 83.9039C222.425 88.5377 219.157 89.4955 207.528 89.1035C198.278 88.7908 197.31 88.5572 194.777 86.0212C193.211 84.4543 191.762 81.587 191.396 79.3339L190.759 75.3904L181.256 75.0941L171.755 74.7988V78.9141C171.755 89.2116 180.005 101.45 190.048 106.05C194.254 107.977 196.765 108.278 208.793 108.294C221.131 108.311 223.256 108.048 227.826 105.947C247.824 96.7508 252.641 71.5961 237.283 56.562C230.373 49.7985 225.007 47.9878 209.945 47.3365C197.516 46.8005 196.883 46.6637 194.151 43.9301C189.342 39.1225 190.903 29.469 196.933 26.7221C198.452 26.0297 204.146 25.4926 209.973 25.4926H216.588C218.975 25.4926 221.264 26.4409 222.952 28.1287L223.814 28.9906C226.287 31.4639 227.312 33.4228 227.312 35.678V38.8673H237.218H247.125L246.424 33.466C245.037 22.757 238.001 13.0388 228.494 8.69819C224.523 6.88541 221.439 6.47285 210.336 6.27326C202.98 6.14157 195.51 6.47594 193.736 7.0171ZM255.09 57.4252V108.904H267H277V87.7753V65.5H292.642H308V85.5V108.904H320.5H329.946V57.1289L330.213 5.94507H320.429H308V16.5V27V47.0979H292.642H277V26.5215V5.94507H264.863H255.09V57.4252ZM141.865 60.7297C141.895 61.1536 134.743 61.5013 125.973 61.5013C117.202 61.5013 110.026 61.274 110.026 60.9952C110.026 60.7174 113.609 53.3058 117.988 44.5258L125.951 28.5616L133.881 44.2593C138.243 52.8942 141.835 60.3058 141.865 60.7297Z" stroke="#2CB7C6" stroke-width="2" mask="url(#path-2-inside-1_130_46)"/>
<path d="M5.87659 108.904V57.4252V5.94507H15.6504H27.7869V26.5215V47.0979H43.4285H58.7869V27V16.5V5.94507H71.2159H81L80.7325 57.1289V108.904H71.2869H61.4329V87.7753V65.5H43.4285H27.7869V87.7753V108.904H17.7869H5.87659Z" stroke="#2CB7C6" stroke-width="2" mask="url(#path-2-inside-1_130_46)"/>
<path d="M554.03 6.50024V18.55L554.085 32.1819L554.086 32.3L554.139 32.4055L563.096 50.1604L572.054 67.9153L572.503 68.8049L572.947 67.9133L581.939 49.8928L590.933 31.8733L590.985 31.7678V6.50024H609.532V35.6731L590.938 72.8518L572.736 109.242L554.336 72.5891L535.54 35.1477L535.484 20.7756C535.469 16.7905 535.473 13.2279 535.543 10.6008C535.578 9.28631 535.63 8.21556 535.702 7.44653C535.739 7.06093 535.779 6.76331 535.822 6.55396C535.826 6.53506 535.831 6.51698 535.835 6.50024H554.03ZM526.198 5.41626V23.9641H470.642V46.5198L471.135 46.5266L491.969 46.8049H502.706L512.894 65.1165H470.642V88.7502H526.198V107.298H453.123V5.41626H526.198ZM638.284 7.50317C642.538 5.82919 645.019 5.50059 655.205 5.66528L657.348 5.70435C668.663 5.9323 671.384 6.25055 674.687 7.8772L675.357 8.22095C684.87 13.2459 690.899 21.5413 692.395 31.5813L692.524 32.5588L693.091 37.3381H674.319V34.6487C674.319 32.3566 673.328 30.3862 671.131 28.0754L670.675 27.6086C668.341 25.2753 665.177 23.9642 661.877 23.9641H649.754C646.557 23.9641 643.486 25.1942 641.176 27.3928L640.955 27.6086C638.834 29.7301 637.611 31.9712 637.353 34.3821C637.111 36.6401 637.722 38.9821 639.123 41.4368L639.414 41.929C640.009 42.9048 640.539 43.7085 641.245 44.342C641.964 44.9868 642.834 45.4314 644.078 45.7581C646.213 46.3187 649.556 46.5548 655.354 46.8235L657.994 46.9417C665.237 47.258 670.151 47.9467 674.141 49.511C677.866 50.9716 680.819 53.2103 684.117 56.7043L684.781 57.4202C698.424 72.3486 693.908 94.6474 675.621 103.647L674.74 104.065C671.031 105.763 665.313 106.843 659.279 107.181C653.628 107.498 647.757 107.16 643.078 106.101L642.159 105.88C629.187 102.557 620.251 92.2968 619.508 80.0696L619.479 79.4866L619.298 74.8616H636.836L637.408 78.385C637.767 80.59 639.107 83.3348 640.627 85.0227L640.934 85.3459C641.595 86.0076 642.157 86.5484 642.806 86.9631C643.467 87.3857 644.197 87.6654 645.191 87.8518C647.137 88.2166 650.193 88.2366 655.923 88.2366H668.039L668.188 88.0696L671.19 84.7092C674.655 80.8324 675.384 75.075 672.876 71.0784L672.623 70.6975C671.078 68.4916 669.286 67.0768 666.414 66.2307C663.582 65.3964 659.703 65.1165 653.992 65.1165C647.584 65.1165 643.056 64.711 639.337 63.6145C635.865 62.5909 633.074 60.9573 630.107 58.4407L629.512 57.925H629.511C622.991 52.1866 619.486 44.6483 619.346 36.1008L619.342 35.2708C619.382 30.7881 620.055 27.0417 621.497 23.6526C622.849 20.4755 624.889 17.5876 627.762 14.6897L628.348 14.1106C630.751 11.7749 634.847 9.0084 637.726 7.73657L638.284 7.50317Z" fill="#2CB7C6" stroke="#2CB7C6"/>
<path d="M344.809 66.9716V49.0878L360.295 58.0292L344.809 66.9716Z" fill="#2CB7C6" stroke="#2CB7C6"/>
</svg>
